# xmcd
#
# Track frame offsets:
#	150
#	21471
#	41400
#	60798
#	80627
#	98870
#	115457
#	135687
#	152256
#	169783
#	191062
#	211824
#	228595
#	245362
#	260797
#	273167
#	287832
#	304667
#
# Disc length: 4259 seconds
#
# Revision: 0
# Processed by: cddbd v1.4PL0 Copyright (c) Steve Scherf et al.
# Submitted via: EasyCDDAExtractor 5.0.4.1
#
DISCID=f910a112
DTITLE=Leonardo - O Melhor
DYEAR=1900
DGENRE=Sertanejo
TTITLE0=120... 150... 200 Km Por Hora
TTITLE1=Deixaria Tudo
TTITLE2=A Chuva Não Vai Parar
TTITLE3=Mentira Que Virou Paixão
TTITLE4=Quero Colo
TTITLE5=Incerteza
TTITLE6=Como Esquecer de Você
TTITLE7=Só o Tempo Vai Dizer
TTITLE8=Fiquei Sozinho
TTITLE9=O Quanto Te Amei
TTITLE10=Será
TTITLE11=Fonte de Desejos
TTITLE12=Feitiço
TTITLE13=Namoro Novo
TTITLE14=Rola Pinga
TTITLE15=Boto Pra Remexer
TTITLE16=Dona Encrenca
TTITLE17=Água de Coco
EXTD=
EXTT0=
EXTT1=
EXTT2=
EXTT3=
EXTT4=
EXTT5=
EXTT6=
EXTT7=
EXTT8=
EXTT9=
EXTT10=
EXTT11=
EXTT12=
EXTT13=
EXTT14=
EXTT15=
EXTT16=
EXTT17=
PLAYORDER=
